{"title":"Captain.America.The.First.Avenger.BRRip.XviD-RLF","uid":6747302,"size":1474196970,"categoryP":"video","categoryS":"movies","magnet":"?xt=urn:btih:cd58e3b1255585feac879c2cdb4966e343126fad&amp;dn=Captain.America.The.First.Avenger.BRRip.XviD-RLF&amp;tr=udp%3A%2F%2Ftracker.openbittorrent.com%3A80&amp;tr=udp%3A%2F%2Fopen.demonii.com%3A1337&amp;tr=udp%3A%2F%2Ftracker.coppersurfer.tk%3A6969&amp;tr=udp%3A%2F%2Fexodus.desync.com%3A6969","seeders":0,"leechers":2,"uploader":"rlf-rls","files":-1,"time":1318756840,"description":"Captain.America.The.First.Avenger.BRRip.XviD-RLF\n                                            \nGeneral:\n\nComplete name                    : rlf-catfa.avi\nFormat                           : AVI\nFormat/Info                      : Audio Video Interleave\nFile size                        : 1.36 GiB\nDuration                         : 2h 4mn\nOverall bit rate                 : 1 566 Kbps\nLanguage                         : English\nSubs                             : Polish \nEncoder                          : Ralf\n\nVideo:\n\nFormat                           : MPEG-4 Visual\nFormat profile                   : Advanced Simple@L5\nFormat settings, BVOP            : 2\nFormat settings, QPel            : No\nFormat settings, GMC             : No warppoints\nFormat settings, Matrix          : H.263\nMuxing mode                      : Packed bitstream\nCodec ID                         : XVID\nDuration                         : 2h 4mn\nBit rate                         : 1 429 Kbps\nWidth                            : 688 pixels\nHeight                           : 288 pixels\nDisplay aspect ratio             : 2.35:1\nFrame rate                       : 23.976 fps\nColor space                      : YUV\nChroma subsampling               : 4:2:0\nBit depth                        : 8 bits\nScan type                        : Progressive\nBits/(Pixel*Frame)               : 0.301\nStream size                      : 1.24 GiB (91%)\n\nAudio:\n\nFormat                           : MPEG Audio\nFormat profile                   : Layer 3\nCodec ID/Hint                    : MP3\nDuration                         : 2h 4mn\nBit rate mode                    : Constant\nBit rate                         : 128 Kbps\nChannel(s)                       : 2 channels\nSampling rate                    : 48.0 KHz\nStream size                      : 114 MiB (8%)\nAlignment                        : Split accross interleaves\nInterleave, duration             : 42 ms (1.00 video frame)\n\nMOVIE INFO:\n\nAfter being deemed unfit for military service, Steve Rogers volunteers for a \ntop secret research project that turns him into Captain America, a superhero \ndedicated to defending America's ideals.\n                                &lt;a href=&quot;\nhttp://www.imdb.com/title/tt0458339/&quot; rel=&quot;nofollow&quot; target=&quot;_NEW&quot;&gt;\nhttp://www.imdb.com/title/tt0458339/&lt;/a&gt;\n                   \nSOURCE:\n\nMHD 720p.BluRay.x264 (THX)\n\n\nCONTACT:\n\n &lt;a href=&quot;\nhttp://www.postimg.com/50000/photo-49458.jpg&quot; rel=&quot;nofollow&quot; target=&quot;_NEW&quot;&gt;\nhttp://www.postimg.com/50000/photo-49458.jpg&lt;/a&gt; &lt;a href=&quot;\nhttp://www.postimg.com/50000/photo-49459.jpg&quot; rel=&quot;nofollow&quot; target=&quot;_NEW&quot;&gt;\nhttp://www.postimg.com/50000/photo-49459.jpg&lt;/a&gt; &lt;a href=&quot;\nhttp://www.postimg.com/50000/photo-49460.jpg&quot; rel=&quot;nofollow&quot; target=&quot;_NEW&quot;&gt;\nhttp://www.postimg.com/50000/photo-49460.jpg&lt;/a&gt; &lt;a href=&quot;\nhttp://www.postimg.com/50000/photo-49461.jpg&quot; rel=&quot;nofollow&quot; target=&quot;_NEW&quot;&gt;\nhttp://www.postimg.com/50000/photo-49461.jpg&lt;/a&gt; &lt;a href=&quot;\nhttp://www.postimg.com/50000/photo-49462.jpg&quot; rel=&quot;nofollow&quot; target=&quot;_NEW&quot;&gt;\nhttp://www.postimg.com/50000/photo-49462.jpg&lt;/a&gt;","torrent":{"xt":"urn:btih:cd58e3b1255585feac879c2cdb4966e343126fad","amp;dn":"Captain.America.The.First.Avenger.BRRip.XviD-RLF","amp;tr":["udp%3A%2F%2Ftracker.openbittorrent.com%3A80","udp%3A%2F%2Fopen.demonii.com%3A1337","udp%3A%2F%2Ftracker.coppersurfer.tk%3A6969","udp%3A%2F%2Fexodus.desync.com%3A6969"],"infoHash":"cd58e3b1255585feac879c2cdb4966e343126fad","infoHashBuffer":{"type":"Buffer","data":[205,88,227,177,37,85,133,254,172,135,156,44,219,73,102,227,67,18,111,173]},"announce":[],"urlList":[]}}